<svg xmlns="http://www.w3.org/2000/svg" width="237" height="60" fill="none" viewBox="0 0 237 60"><path fill="#fff" d="M127.56 30.24q-1.69 0-2.68-.89-.98-.9-.98-2.41 0-.99.52-1.74.53-.75 1.46-1.16.94-.42 2.18-.42.62 0 1.22.1a4 4 0 0 1 1 .26v-.58q0-.65-.45-1-.44-.36-1.25-.36a4.9 4.9 0 0 0-1.56.27 8 8 0 0 0-1.68.83l-.92-2.3q.95-.63 2.09-.96a8.3 8.3 0 0 1 2.35-.34q2.21 0 3.3 1.01 1.1 1 1.1 3.01V30h-2.98v-.74a2.95 2.95 0 0 1-1.16.73q-.69.25-1.56.25m.78-2.5q.56 0 1.05-.17.5-.18.89-.51v-.84a4 4 0 0 0-.81-.21 6 6 0 0 0-.91-.07q-.81 0-1.27.26-.45.25-.45.72 0 .39.39.61.39.21 1.11.21m7.742 2.26V19.78h3v.94a3.1 3.1 0 0 1 1.2-.88q.7-.3 1.6-.3 1.62 0 2.57 1.01t.95 2.75V30h-3v-5.22q0-1.28-.36-1.81-.35-.53-1.22-.53-.91 0-1.33.55-.41.55-.41 1.75V30zm6.33-11.6q-.57 0-1.04-.16-.46-.16-.87-.34a8 8 0 0 0-.69-.28 2.1 2.1 0 0 0-.7-.12 1.3 1.3 0 0 0-.66.17q-.28.17-.28.65h-1.38q0-.8.23-1.45.23-.66.77-1.04.54-.39 1.46-.39.56 0 1.01.15.46.14.86.32.35.16.7.29.36.12.73.12.38 0 .66-.16t.28-.64h1.36q0 .78-.23 1.44-.22.65-.76 1.05-.53.39-1.45.39m10.137 11.84q-2.2 0-3.47-1.42-1.27-1.43-1.27-3.92 0-1.64.58-2.84.58-1.21 1.64-1.86 1.07-.66 2.52-.66 1.44 0 2.49.66 1.06.65 1.63 1.85.58 1.2.58 2.85 0 1.66-.57 2.86-.561 1.19-1.62 1.84-1.05.64-2.51.64m0-2.9q.83 0 1.27-.63.45-.64.45-1.81t-.46-1.81q-.45-.65-1.26-.65t-1.28.66q-.46.66-.46 1.8t.46 1.79q.47.65 1.28.65m10.569 2.9a5.7 5.7 0 0 1-2.43-.54q-1.16-.54-1.81-1.44l1.9-1.6q.5.51 1.17.83.67.31 1.27.31.66 0 1.01-.19.35-.2.35-.57a.57.57 0 0 0-.17-.4q-.17-.18-.65-.39-.47-.22-1.38-.55-1.75-.63-2.46-1.36-.7-.73-.7-1.88 0-1.31 1.06-2.11 1.07-.81 2.78-.81 1.16 0 2.15.44t1.71 1.28l-1.92 1.58q-.89-.86-2-.86-.49 0-.81.18-.31.17-.31.44 0 .28.38.51.39.23 1.48.55 1.22.35 1.99.82.78.47 1.14 1.1.37.63.37 1.46 0 1.5-1.1 2.35t-3.02.85m15.512 0q-1.99 0-3.1-1.4-1.1-1.41-1.1-3.96 0-1.57.54-2.77.54-1.21 1.49-1.89.96-.68 2.21-.68 1.28 0 2 1.02V16.9l3-1.34V30h-3v-.86q-.55 1.1-2.04 1.1m.52-2.9q.59 0 .93-.13a1.5 1.5 0 0 0 .59-.45v-3.68a1.7 1.7 0 0 0-.66-.47 2.2 2.2 0 0 0-.86-.17q-.82 0-1.27.63-.45.62-.45 1.81 0 .83.19 1.38.189.54.57.81t.96.27m11.898 2.9q-1.52 0-2.62-.64-1.09-.64-1.68-1.84-.58-1.2-.58-2.88 0-1.63.59-2.83.6-1.2 1.69-1.85 1.1-.66 2.6-.66 1.3 0 2.34.53 1.05.52 1.66 1.6.62 1.07.62 2.71 0 .28-.01.7-.01.41-.07.82h-6.5q0 .55.24.96.24.4.68.62t1.04.22q.78 0 1.3-.25.53-.25 1.02-.83l1.72 1.72a5.55 5.55 0 0 1-1.71 1.39q-.99.51-2.33.51m-1.92-6.58h3.68a2.2 2.2 0 0 0-.31-.88 1.4 1.4 0 0 0-.61-.52q-.38-.18-.92-.18-.73 0-1.23.42t-.61 1.16M128.88 46.24q-1.52 0-2.62-.64-1.09-.64-1.68-1.84-.58-1.2-.58-2.88 0-1.63.59-2.83.6-1.2 1.69-1.85 1.1-.66 2.6-.66 1.3 0 2.34.53 1.05.52 1.66 1.6.62 1.07.62 2.71 0 .28-.01.7-.01.41-.07.82h-6.5q0 .55.24.96.24.4.68.62t1.04.22q.78 0 1.3-.25.53-.25 1.02-.83l1.72 1.72a5.55 5.55 0 0 1-1.71 1.39q-.99.51-2.33.51m-1.92-6.58h3.68a2.2 2.2 0 0 0-.31-.88 1.4 1.4 0 0 0-.61-.52q-.38-.18-.92-.18-.73 0-1.23.42t-.61 1.16m7.536 6.34 3.92-5.28-3.68-4.94h3.5l1.28 1.72q.17.22.36.49.2.27.28.47.11-.2.28-.47.18-.28.34-.49l1.32-1.72h3.5l-3.68 4.94 3.92 5.28h-3.5l-1.56-2.04a7 7 0 0 1-.34-.49 27 27 0 0 1-.28-.47q-.08.19-.29.47-.2.28-.35.48l-1.52 2.05zm13.305 4.06V35.78h3v.68q.67-.92 2-.92 1.32 0 2.27.65.95.64 1.46 1.84t.51 2.87q0 1.59-.54 2.79t-1.51 1.88q-.96.67-2.23.67-.64 0-1.14-.23a2.1 2.1 0 0 1-.82-.65v3.36zm4.48-6.72q.84 0 1.3-.64.46-.65.46-1.8 0-1.2-.45-1.83t-1.31-.63q-.49 0-.84.13-.34.13-.64.43v3.74q.09.25.51.43.43.17.97.17m11.619 2.9q-1.52 0-2.62-.64-1.09-.64-1.68-1.84-.58-1.2-.58-2.88 0-1.63.59-2.83.6-1.2 1.69-1.85 1.1-.66 2.6-.66 1.299 0 2.34.53 1.05.52 1.66 1.6.62 1.07.62 2.71 0 .28-.01.7-.01.41-.07.82h-6.5q0 .55.24.96.24.4.68.62t1.04.22q.78 0 1.3-.25.53-.25 1.02-.83l1.72 1.72a5.55 5.55 0 0 1-1.71 1.39q-.99.51-2.33.51m-1.92-6.58h3.68q-.08-.53-.31-.88a1.4 1.4 0 0 0-.61-.52q-.38-.18-.92-.18-.73 0-1.23.42t-.61 1.16m8.926 6.34V35.78h3v.94q.23-.47.82-.82.591-.36 1.14-.36 1.19 0 2 .9l-.4 2.72q-.46-.41-.88-.57a2.4 2.4 0 0 0-.92-.17q-.57 0-.96.24t-.6.71q-.2.47-.2 1.15V46zm8.614 0V35.78h3V46zm1.5-11.12q-.7 0-1.21-.51t-.51-1.21q0-.69.5-1.18.5-.5 1.22-.5.74 0 1.23.49.49.48.49 1.19 0 .72-.5 1.22t-1.22.5m8.895 11.36q-1.52 0-2.62-.64-1.09-.64-1.68-1.84-.58-1.2-.58-2.88 0-1.63.59-2.83.6-1.2 1.69-1.85 1.1-.66 2.6-.66 1.3 0 2.34.53 1.05.52 1.66 1.6.62 1.07.62 2.71 0 .28-.01.7-.01.41-.07.82h-6.5q0 .55.24.96.24.4.68.62t1.04.22q.78 0 1.3-.25.53-.25 1.02-.83l1.72 1.72a5.55 5.55 0 0 1-1.71 1.39q-.99.51-2.33.51m-1.92-6.58h3.68a2.2 2.2 0 0 0-.31-.88 1.4 1.4 0 0 0-.61-.52q-.38-.18-.92-.18-.73 0-1.23.42t-.61 1.16m8.927 6.34V35.78h3v.94a3.1 3.1 0 0 1 1.2-.88q.7-.3 1.6-.3 1.62 0 2.57 1.01t.95 2.75V46h-3v-5.22q0-1.28-.36-1.81-.35-.53-1.22-.53-.91 0-1.33.55-.41.55-.41 1.75V46zm16.507.24q-1.48 0-2.56-.65t-1.67-1.85-.59-2.84q0-1.63.59-2.83.6-1.21 1.68-1.87 1.09-.66 2.55-.66 1.76 0 2.9.82 1.15.82 1.66 2.44l-2.86.94q-.24-.63-.67-.97a1.52 1.52 0 0 0-.99-.35q-.79 0-1.31.7-.51.7-.51 1.78t.5 1.77 1.28.69q.6 0 1.03-.36.43-.37.67-1.1l2.86.82q-.51 1.77-1.65 2.65-1.14.87-2.91.87m7.087-.24V35.78h3V46zm1.5-11.12q-.7 0-1.21-.51t-.51-1.21q0-.69.5-1.18.5-.5 1.22-.5.74 0 1.23.49.49.48.49 1.19 0 .72-.5 1.22t-1.22.5m7.575 11.36q-1.69 0-2.68-.89-.98-.9-.98-2.41 0-.99.52-1.74.53-.75 1.46-1.16.94-.42 2.18-.42.62 0 1.22.1a4 4 0 0 1 1 .26v-.58q0-.65-.45-1-.44-.36-1.25-.36a4.9 4.9 0 0 0-1.56.27 8.2 8.2 0 0 0-1.68.83l-.92-2.3q.95-.63 2.09-.96a8.3 8.3 0 0 1 2.35-.34q2.211 0 3.3 1.01 1.1 1 1.1 3.01V46h-2.98v-.74q-.46.48-1.16.73-.69.25-1.56.25m.78-2.5q.561 0 1.05-.17.5-.18.89-.51v-.84a4 4 0 0 0-.81-.21 6 6 0 0 0-.91-.07q-.81 0-1.27.26-.45.25-.45.72 0 .39.39.61.39.21 1.11.21M15 26.86H3.24v-1.74C3.24 13 5.76 11.5 26.04 11.5c16.68 0 18.66.18 21.3 1.92 2.7 1.74 3.54 4.38 3.54 10.74 0 4.74-.48 7.08-1.74 9-1.74 2.58-5.46 3.9-12.24 4.26-16.8 1.08-19.14 1.26-19.92 1.62-1.5.6-1.92 1.38-1.98 3.36v.42h36.54V52H3.84c-.18-1.98-.18-2.64-.18-4.56 0-6.66.24-9.72.9-11.58 1.26-3.72 3.84-5.22 10.08-6.06.48-.06 6.18-.48 17.22-1.38 7.08-.54 7.62-.84 7.62-4.08 0-2.34-.42-3.18-1.92-3.6-1.08-.36-2.7-.42-9.06-.42-7.74 0-10.92.18-12.18.72-1.02.36-1.26 1.44-1.32 4.44zm49.814-14.88h44.52v8.58h-28.8c-2.34 0-4.14-.12-5.04-.3v4.32c0 1.5 0 2.04-.12 3 1.68-1.5 2.34-1.86 3.9-2.22 1.92-.48 6.42-.78 11.7-.78 16.92 0 20.22 2.16 20.22 13.14 0 7.92-1.56 11.46-5.7 13.14-3.18 1.26-6.36 1.62-15.48 1.62-12.18 0-16.32-.24-20.34-1.14-4.62-1.08-6.42-3.84-6.42-10.14 0-.24 0-.9.06-1.56h11.58c.06 1.68.24 2.46.72 2.88.9.84 3.78 1.14 11.16 1.14 8.76 0 9.9-.06 11.1-.6 1.14-.54 1.5-1.8 1.5-4.98 0-3-.54-3.96-2.52-4.32-1.8-.36-7.44-.6-12.66-.6-7.08 0-8.7.48-8.7 2.58v.48h-10.68z"/></svg>