<svg xmlns="http://www.w3.org/2000/svg" width="63" height="24" fill="currentColor" viewBox="0 0 63 24"><path d="M52.008 16.945c.014.089.131.174.245.215.041.014.062.042.018.136-.323.694-.62 1.094-1.026 1.696a6.4 6.4 0 0 1-1.302 1.409c-.767.635-1.833 1.326-2.714.861-.392-.203-.56-.75-.553-1.194.018-1.247.573-2.527 1.597-3.785 1.249-1.537 2.63-2.334 3.535-1.898.937.447.638 1.532.218 2.384a.24.24 0 0 0-.018.175M62.066 7.23c.067-.119-.004-.205-.154-.205l-2.626.001c-.194 0-.294.024-.386.205-.301.577-3.97 6.076-4.653 7.143-.115.163-.256.14-.272-.046-.07-.634-.617-1.363-1.48-1.712-.657-.267-1.3-.315-1.969-.227-1.207.163-2.282.8-3.227 1.517-1.425 1.083-2.654 2.487-4.24 3.524-.867.565-2.053 1.057-2.847.322-.718-.666-.637-2.145.462-3.289.116-.12.255-.019.233.088-.104.517.023 1.032.416 1.392.48.43 1.166.479 1.754.192.693-.344 1.1-1.007 1.218-1.76.184-1.167-.715-2.196-1.84-2.279-.913-.064-1.789.254-2.642.958-.428.355-.671.617-1.041 1.144-.09.13-.229.143-.225-.049.042-1.495-.576-2.336-1.811-2.363-.96-.023-1.984.498-2.783 1.134-.875.703-1.64 1.635-2.462 2.51-.102.109-.19.104-.22-.106-.023-.99-.273-1.95-.732-2.63a.61.61 0 0 0-.79-.195c-.132.073-.593.285-.929.555-.166.137-.231.335-.157.59a6.92 6.92 0 0 1-.255 4.582c-.552 1.302-1.623 2.475-2.882 2.872-.83.263-1.691.135-2.225-.6-.733-1.015-.437-2.78.656-4.246.963-1.29 2.358-2.11 3.749-2.638.163-.063.197-.168.15-.307-.075-.229-.195-.54-.244-.682-.128-.34-.485-.395-.921-.347-1.01.117-1.922.464-2.823.946-2.358 1.262-3.54 3.706-4.058 5.014-.25.628-.463 1.02-.739 1.367-.371.467-.838.893-1.691 1.642a.3.3 0 0 0-.07.345c.087.18.53.807.656.863.139.068.3-.028.365-.073.597-.405 1.311-1.047 1.66-1.482.123-.149.25-.086.314.14a3.67 3.67 0 0 0 2.362 2.512c2.162.729 4.404-.326 6.097-2.164 1.076-1.168 1.464-1.919 1.877-2.43.699-.865 2.077-2.802 3.719-4.046.602-.458 1.314-.808 1.673-.576.287.187.38.62-.081 1.459-1.674 3.057-4.137 6.648-4.589 7.52-.082.15-.01.27.148.27.876-.005 1.744-.003 2.54-.003.132-.005.191-.067.257-.16 1.285-2.011 2.494-3.925 3.79-5.904.072-.117.14-.028.142.023.028.46.14 1.087.412 1.5.49.762 1.184 1.09 1.954 1.095.613.009.923-.087 1.583-.333.538-.2.97-.461 1.3-.698.194-.135.228.09.223.125-.297 1.596.07 3.488 1.656 4.272 1.9.936 3.985-.38 5.185-1.567.118-.115.244-.103.256.144.028.454.23.992.606 1.369 1.006 1.01 3.035.609 5.072-.968 1.308-1.009 2.676-2.435 3.912-3.945.047-.059.08-.153-.009-.248-.188-.197-.46-.422-.647-.596-.085-.073-.21-.052-.282.002-1.267 1.206-2.407 2.58-4.056 3.716-.556.388-1.442.701-1.84.162-.155-.209-.137-.498.015-.878.48-1.198 8.09-12.783 8.484-13.466"/><path d="M26.267 8.627c.032.172.1.206.177.191.388-.077.812-.396 1.063-.766.229-.335.336-.818.109-1.012-.203-.174-.533-.125-.777.091a1.73 1.73 0 0 0-.572 1.497M6.873 23.54c-2.837.018-5.336-1.734-5.623-4.769a6.13 6.13 0 0 1 1.268-4.416c.844-1.1 2.273-2.014 3.483-2.238.393-.072.922-.028 1.141.235.343.399.244.837-.099 1.012-.922.471-2.033 1.278-2.582 2.38-.446.898-.536 1.982.145 3.014 1.139 1.72 4.315 1.768 7.268-.976a25 25 0 0 0 2.05-2.08c1.301-1.487 1.734-2.03 3.463-4.427.018-.028.028-.065.018-.082-.014-.033-.037-.037-.088-.042-1.154.033-2.16.376-3.139 1.107-.281.205-.687.177-.864-.094-.198-.306-.056-.704.269-.929 1.573-1.094 3.292-1.292 5.047-1.588-.001 0 .122.004.222-.128.72-.924 1.265-1.759 2.033-2.694.774-.948 1.773-1.82 2.537-2.474 1.066-.917 1.75-1.225 2.445-1.603.183-.096-.024-.21-.08-.21-3.879-.73-7.911-1.673-11.764-.247-2.668.996-3.837 3.112-3.275 4.526.4 1.003 1.72 1.166 2.954.561a6.7 6.7 0 0 0 2.648-2.355c.376-.579 1.17-.161.74.844-1.126 2.65-3.28 4.752-5.904 4.841-2.233.072-3.673-1.57-3.669-3.597.01-3.997 4.46-6.63 9.136-7.023 5.631-.465 10.965 1.035 16.557 1.713 4.284.519 8.391.53 12.697-.46.51-.11.867.215.834.729-.042.743-.618 1.459-2.036 2.232-1.613.885-3.3 1.153-5.063 1.168-4.262.037-8.231-1.626-12.339-2.519.005.18.052.394-.098.508-2.276 1.678-4.332 3.383-5.71 5.776-.046.056-.023.108.06.103 1.195-.064 2.27-.095 3.387-.184.195-.019.203-.065.186-.207-.1-.825.142-1.766.868-2.413.742-.666 1.673-.742 2.29-.262.7.546.638 1.528.255 2.265-.39.747-1.035 1.147-1.654 1.341 0 0-.13.028-.11.146.022.189.867.656.939.78.07.119.032.303-.095.443a.53.53 0 0 1-.408.195c-.144-.003-.232-.053-.417-.153-.378-.205-.85-.542-1.166-.939-.108-.134-.162-.137-.43-.122-1.209.07-3.093.252-4.37.411-.309.037-.354.096-.418.204-2.035 3.355-4.208 6.974-6.594 9.397-2.559 2.598-4.686 3.282-6.944 3.3"/></svg>