<svg xmlns="http://www.w3.org/2000/svg" width="32" height="21" fill="currentColor" viewBox="0 0 32 21"><path d="m3.687 16.983.489.058c.221.023.244.21.244.326v.57H2.175v-.57c0-.117.023-.303.244-.326l.489-.058v-.489H0v.489l.489.058c.22.023.244.21.244.326v1.884c0 .117-.023.303-.244.326L0 19.635v.489h2.908v-.489l-.489-.058c-.22-.023-.244-.21-.244-.326v-.57H4.41v.57c0 .117-.024.303-.245.326l-.488.058v.489h2.908v-.489l-.489-.058c-.22-.023-.244-.21-.244-.326v-1.884c0-.117.023-.303.244-.326l.489-.058v-.489H3.676v.489zm19.368-.488h-3.583v.488l.43.046c.152.024.256.082.256.291v1.92c0 .116-.023.302-.244.325l-.488.058v.489h3.629c1.303 0 2.373-.523 2.373-1.815 0-1.29-1.07-1.803-2.373-1.803m-.268 2.93h-1.221v-2.233h1.221c.722 0 .966.338.966 1.117 0 .768-.244 1.117-.966 1.117"/><path d="M31.523 19.577c-.232-.023-.302-.175-.372-.28l-1.675-2.558c-.116-.186-.21-.245-.384-.245h-2.745v.489l.663.07a.19.19 0 0 1 .116.302l-1.245 2.013c-.046.081-.116.174-.255.197l-.489.058v.489h2.315v-.488l-.396-.035c-.174-.024-.267-.14-.174-.28l.186-.302h2.233l.163.244c.152.221-.035.314-.197.326l-.408.046v.489H32v-.488zm-4.071-1.21.686-1.117.733 1.117zm-10.574-1.384.489.058c.22.023.244.21.244.326v1.814l-1.92-2.536c-.08-.116-.162-.15-.372-.15H12.83v.488l.489.058c.22.023.244.21.244.326v1.884c0 .116-.023.302-.244.326l-.489.058v.488h2.327v-.488l-.489-.058c-.22-.024-.244-.21-.244-.326v-1.815l1.92 2.525c.092.116.162.15.371.15h1.768v-2.756c0-.116.024-.302.245-.326l.488-.058v-.488h-2.315zm-7.177-.617c-2.361 0-2.966 1.036-2.966 1.931 0 .896.605 1.943 2.966 1.943s2.966-1.035 2.966-1.931c0-.907-.604-1.943-2.966-1.943m0 3.188c-.919 0-1.291-.384-1.291-1.245 0-.86.384-1.245 1.291-1.245.92 0 1.291.384 1.291 1.245 0 .86-.372 1.244-1.29 1.244M20.019 1.198c-.396 1.78-.558 2.606-.884 3.885-.314 1.233-.559 2.385-.977 2.943-.419.57-.989.687-1.373.733a6 6 0 0 1-.78.035c-.43 0-.58-.012-.778-.035-.384-.046-.954-.163-1.373-.733-.419-.558-.663-1.71-.966-2.943-.325-1.29-.488-2.105-.884-3.885 0 0-.395.012-.57.023-.244.012-.43.035-.628.059 0 0 .233 3.664.338 5.222a386 386 0 0 0 .476 6.468s.338.058.896.081c.582.035.85.035.85.035.244-.919.534-2.187.872-2.733.279-.442.698-.489.942-.524.372-.046.698-.058.837-.058.152 0 .466 0 .838.058.244.035.663.082.942.524.337.546.64 1.814.873 2.733 0 0 .255 0 .837-.035.558-.035.896-.081.896-.081.174-2.082.372-4.827.477-6.468.104-1.547.337-5.222.337-5.222a9 9 0 0 0-.628-.059c-.175-.011-.57-.023-.57-.023"/><path d="M24.637 3.362C24.404 1.035 22.846.547 21.485.314c-.687-.116-1.908-.21-2.687-.244C18.11.023 16.506 0 16.018 0c-.49 0-2.094.023-2.78.07-.78.035-2.001.128-2.688.244-1.36.233-2.92.721-3.152 3.048-.07.64-.081 1.465-.07 2.35.024 1.477.151 2.465.221 3.163.047.477.245 1.896.5 2.63.35 1.011.663 1.302 1.036 1.604.674.547 1.791.722 2.024.768 1.256.221 3.792.268 4.92.268 1.117 0 3.664-.035 4.92-.268.233-.046 1.35-.21 2.024-.768.373-.302.687-.593 1.036-1.605.256-.733.453-2.163.5-2.629.07-.686.198-1.686.22-3.164-.01-.895-.034-1.721-.092-2.35m-.86 3.908c-.14 1.861-.303 2.978-.536 3.78-.21.71-.465 1.175-.837 1.513-.629.57-1.49.686-2.001.767-1.094.163-2.943.221-4.385.221-1.455 0-3.292-.058-4.386-.22-.512-.082-1.372-.198-2-.768-.373-.338-.629-.815-.838-1.513-.233-.802-.407-1.919-.535-3.78-.082-1.117-.07-2.931.058-3.908.174-1.466.896-2.199 2.443-2.466.72-.128 1.698-.221 2.617-.268a52 52 0 0 1 2.64-.07 41 41 0 0 1 2.63.07c.918.047 1.895.14 2.617.268 1.547.279 2.268 1.012 2.454 2.466.128.965.14 2.78.058 3.908"/></svg>