<svg xmlns="http://www.w3.org/2000/svg" width="32" height="32" fill="currentColor" viewBox="0 0 32 32"><g clip-path="url(#clip0_601_50336)"><path d="M16 0c4.667 0 9.507.399 14.423 1.247.073 1.97.157 5.016.017 7.6-.313 5.762-1.581 10.234-3.992 14.076C24.043 26.752 20.321 30.044 16 32c-4.323-1.956-8.044-5.248-10.448-9.077-2.41-3.84-3.679-8.314-3.992-14.076-.14-2.584-.056-5.63.017-7.6A85 85 0 0 1 16 0m0 .555c-4.6 0-9.267.392-13.885 1.165-.102 2.923-.102 5.248 0 7.099.306 5.664 1.549 10.053 3.906 13.809 2.36 3.757 5.896 6.861 9.979 8.763 4.083-1.902 7.62-5.006 9.979-8.763s3.6-8.147 3.906-13.81c.102-1.85.102-4.175 0-7.098A84.4 84.4 0 0 0 16 .555m-.04 16.826.119.696a.36.36 0 0 1-.004.2c-.064.226-.484 2.12-.718 3.5a27 27 0 0 0-.26 1.807 1.3 1.3 0 0 0 .06.652c.23.77 1.078 2.777 1.24 3.144q.027.06.035.127l.061.473c-.272-.41-1.749-3.127-2.329-4.632-.068-.177-.08-.264-.005-.59.402-1.729 1.494-4.666 1.801-5.377m-2.153-4.176c.04.123.386 1.307.413 1.59a.55.55 0 0 1-.037.349c-.304.808-1.222 2.817-1.575 3.488-.08.147-.153.244-.301.395-.338.344-.986.994-1.386 1.358a.63.63 0 0 0-.213.416 11 11 0 0 0-.11.987c-.01.213.023.313.143.525.706 1.26 3.062 4.16 3.734 4.768q.087.08.186.142c.099.066.42.274.42.274q.02.015.032.035l.118.205a50 50 0 0 1-1.034-.524 1 1 0 0 1-.166-.113c-.787-.653-3.195-3.475-3.903-4.653-.177-.294-.195-.388-.172-.667.045-.519.113-1.17.173-1.456a.8.8 0 0 1 .207-.427c1.005-1.152 2.941-3.697 3.507-4.786a.5.5 0 0 0 .069-.283c.003-.337-.104-.993-.133-1.16a.3.3 0 0 1-.003-.079zm6.573-.632c.11.05.285.107.365.2 1.25 1.304 2.248 2.658 2.448 3.014q.059.1.074.216c.225 1.902.032 3.917-.427 5.67a.55.55 0 0 1-.24.354c-1.013.762-3.425 2.762-4.235 3.506a1.3 1.3 0 0 0-.228.279 24 24 0 0 0-.616 1.1 27 27 0 0 1-.646-1.59.45.45 0 0 1-.006-.333c.2-.733 1.15-2.87 1.334-3.257-.002.05.009.179-.01.227-.084.252-.593 1.936-.697 2.666a1 1 0 0 0 0 .366c.045.34.25.965.25.965.022-.055.251-.51.411-.636.946-.93 2.93-2.63 4.067-3.552.128-.103.175-.173.204-.37.14-.966.181-2.702.096-3.966a1.35 1.35 0 0 0-.227-.667c-.309-.456-.677-.886-1.236-1.44a.55.55 0 0 1-.153-.293 86 86 0 0 0-.527-2.459zM9.82 14.585a.44.44 0 0 1 .24-.009c.356.085 1.11.27 1.68.416.08.021.179.096.221.167l.124.206a.24.24 0 0 1 .008.236 29 29 0 0 1-.408.754l-.117.21c-.217.387-.435.76-.557.956-.08.13-.126.187-.27.238-.56.197-1.257.433-1.67.566-.084.028-.114.08-.096.174.029.17.124.752.16.92.013.062.064.113.157.094.244-.045.895-.205.895-.205l-.307.283a.2.2 0 0 1-.072.042q-.37.118-.747.211c-.104.023-.17-.019-.198-.137 0 0-.184-.787-.251-1.055l-.035-.116a10 10 0 0 0-.237-.619.14.14 0 0 1-.012-.058c.003-.183.036-.59.036-.59s.399.374.592.51c.043.03.07.037.123.022.264-.066.873-.269 1.208-.394a.46.46 0 0 0 .194-.14 9.6 9.6 0 0 0 1.031-1.559.3.3 0 0 0 .019-.217l-.054-.178a.23.23 0 0 0-.121-.13 45 45 0 0 0-1.6-.578zm11.656-5.064a.54.54 0 0 1 .4.01c.987.414 2.648 1.392 3.572 2.08.09.066.124.112.147.218.217.987.3 2.514.164 3.798a.6.6 0 0 1-.076.246c-.587 1.198-1.244 2.324-1.938 3.194.011-.107.06-.615.063-.911a.1.1 0 0 1 .04-.08q.207-.16.407-.33a.5.5 0 0 0 .1-.114c.282-.457.786-1.413.99-1.988.05-.14.07-.29.058-.437-.066-.803-.191-1.912-.379-2.638a.44.44 0 0 0-.227-.286 16 16 0 0 0-1.2-.518q-.15-.06-.276-.164a44 44 0 0 0-1.673-1.338.57.57 0 0 0-.47-.1q-.503.114-1.002.248a.4.4 0 0 1-.199.013c-.133-.015-.4-.036-.509-.044q.988-.47 2.008-.859m-10.444 6.48q-.343.574-.759 1.098a.3.3 0 0 1-.11.08q-.468.17-.943.316zm-3.236-.53-.144.997-.492-.576c.09-.195.352-.377.636-.421m-.915-2.266-.177.112c-.045.028-.057.04-.076.08a4 4 0 0 1-.113.215.3.3 0 0 1-.063.067q-.314.24-.636.472c-.012.008-.027.005-.037-.006q-.07-.073-.131-.152a.1.1 0 0 1-.02-.065q0-.09.008-.177c.005-.068.024-.1.107-.187q.14-.144.3-.3c.258-.219.914-.75 2.085-1.587a.3.3 0 0 0 .059-.057c.122-.165.472-.619.557-.727a.3.3 0 0 1 .041-.04q.165-.133.347-.245c.325-.205.957-.581 1.31-.787l-.133.166-.024.021q-.376.285-.749.576a.15.15 0 0 0-.063.104q-.06.331-.094.667c-.004.053-.027.077-.08.1-.231.093-.504.192-.726.28a.3.3 0 0 0-.088.048c-.022.017-.316.28-.316.28s.639-.158.874-.211a.16.16 0 0 1 .13.015c.05.022.13.054.172.07a.25.25 0 0 0 .172.007c.264-.059.707-.164.944-.227a.8.8 0 0 0 .294-.137c.113-.079.4-.293.4-.293l-.01.058a.1.1 0 0 1-.021.043q-.102.121-.21.237a.8.8 0 0 1-.333.224c-.67.28-1.817.715-2.678 1.014a.26.26 0 0 0-.123.077l-.107.113s.703.052.918.076a.3.3 0 0 1 .172.076c.176.152.758.754.933.96 0 0-1.657.278-2.425.467a.21.21 0 0 0-.163.16c-.064.224-.213.943-.213.943s-.054-.018-.128-.06a.5.5 0 0 1-.134-.114 8 8 0 0 1-.624-.773c-.041-.063-.058-.143-.006-.207.156-.192.468-.541.64-.721a.5.5 0 0 0 .066-.103c.067-.137.139-.424.172-.552m10.695-3.754a.24.24 0 0 1 .145.02l.342.162a.13.13 0 0 1 .066.084c.047.196.104.455.142.676a.4.4 0 0 1-.048.267q-.284.471-.595.925a.24.24 0 0 0-.03.182c.075.408.382 1.832.382 1.832l-.193-.176a.3.3 0 0 1-.08-.123q-.271-.823-.514-1.653a.21.21 0 0 1 .04-.194c.202-.245.496-.637.667-.885.048-.07.064-.147.036-.205a6 6 0 0 0-.17-.316.14.14 0 0 0-.08-.066l-.231-.073a.2.2 0 0 0-.124.001c-.506.184-1.186.448-1.6.622a.24.24 0 0 1-.16.016c-.12-.018-.472-.08-.644-.114l-.02-.008a.05.05 0 0 1-.017-.038q0-.01.006-.02l.204-.355a.2.2 0 0 1 .128-.093q1.169-.262 2.348-.468m-7.26 1.624a.07.07 0 0 1 .073.044.37.37 0 0 1-.01.294.16.16 0 0 1-.102.083l-.328.072a.03.03 0 0 1-.025-.007l-.008-.01-.003-.014.031-.386a.05.05 0 0 1 .048-.048l.324-.027zm3.725-2.472a.05.05 0 0 1 .043.073l-.799 1.377a.35.35 0 0 1-.206.168l-1.496.47q-.246.076-.503.093c-.332.027-1.317.057-1.317.057l.021-.046a.1.1 0 0 1 .05-.05l.467-.198a.2.2 0 0 0 .09-.067l.72-.888a.5.5 0 0 1 .142-.12 15 15 0 0 1 1.916-.827.7.7 0 0 1 .19-.032zm-.8-1.598a39 39 0 0 1 6.023-.022c.12.009.24.038.35.085.7.293 1.942.939 3.322 1.728q.091.053.17.123c.366.322 1.293 1.272 1.293 1.272l-.29-.058a.3.3 0 0 1-.112-.046 22 22 0 0 0-2.153-1.267.8.8 0 0 0-.27-.08q-.562-.057-1.126-.081a.9.9 0 0 1-.404-.107q-.645-.318-1.313-.587a.8.8 0 0 0-.364-.066q-1.308.022-2.612.093a.3.3 0 0 1-.07-.004l-.325-.05c.924-.16 3.21-.365 4.156-.414l-.385-.128a.8.8 0 0 0-.231-.04c-1.293-.03-3.07-.024-4.576.09a.8.8 0 0 0-.27.066c-.43.19-1.48.76-2.533 1.344l-1.029.577.156-.202a.2.2 0 0 1 .06-.054c.136-.09.547-.357.712-.478.317-.239.817-.66 1.116-.922a1 1 0 0 0 .17-.204c.098-.156.203-.325.267-.42a.36.36 0 0 1 .268-.148m-7.034-3.8c.408-.042.636.116.636.531v.228c0 .423-.228.595-.636.636q-.847.089-1.692.192v.627q-.178.019-.355.042v-2.02a94 94 0 0 1 2.047-.236m18.937-.066q1.35.132 2.696.302v.327q-.583-.075-1.165-.14v1.693l-.355-.04V3.588a91 91 0 0 0-1.176-.123zM10.2 2.876V3.2q-1.11.069-2.219.163v.497a91 91 0 0 1 1.974-.147v.326q-.988.063-1.974.146v.547a93 93 0 0 1 2.219-.163v.326q-1.284.079-2.565.193V3.067q1.282-.114 2.565-.194zm11.51.553c0-.453.225-.546.731-.512q.665.046 1.331.1c.44.038.73.16.73.623v.901c0 .454-.251.536-.73.496a97 97 0 0 0-1.33-.1c-.485-.033-.731-.126-.731-.606zm-3.44-.705q1.284.031 2.569.097v.326q-1.11-.057-2.222-.088v.497a98 98 0 0 1 1.976.076v.325a94 94 0 0 0-1.976-.074v.545q1.112.03 2.222.088v.325a95 95 0 0 0-2.57-.097zm-4.46-.001v1.461c0 .463-.242.564-.731.579q-.639.02-1.276.048c-.454.02-.731-.067-.731-.524v-1.46l.347-.019v1.523c0 .093.08.168.186.164a94 94 0 0 1 1.672-.064.176.176 0 0 0 .176-.176V2.73l.358-.01zm8.433.506a.167.167 0 0 0-.184.174V4.4c0 .093.08.19.184.197q.864.056 1.728.13a.18.18 0 0 0 .184-.168v-1a.21.21 0 0 0-.184-.2 94 94 0 0 0-1.728-.13M15.347 2.7q.959-.007 1.916.005v.326q-1.025-.014-2.048-.006c-.094.002-.186.082-.186.174v1.013c0 .092.094.184.186.183a94 94 0 0 1 1.837.002v-.546a89 89 0 0 0-1.067-.006V3.52q.708 0 1.414.01v1.198a95 95 0 0 0-1.987-.01c-.484.005-.73-.08-.73-.55v-.88c0-.44.22-.585.665-.588m-9.034.821q-.9.093-1.797.203v.744q.898-.109 1.797-.203c.092-.009.184-.093.184-.181v-.41c0-.093-.093-.162-.184-.153"/></g><defs><clipPath id="clip0_601_50336"><path fill="#fff" d="M0 0h32v32H0z"/></clipPath></defs></svg>