<svg width="32" height="32" viewBox="0 0 32 32" fill="currentColor" xmlns="http://www.w3.org/2000/svg">
<g clip-path="url(#clip0_601_50336)">
<path d="M16 0C20.6667 0 25.5067 0.398667 30.4227 1.24667C30.496 3.21733 30.58 6.26267 30.44 8.84667C30.1267 14.6093 28.8587 19.0813 26.448 22.9227C24.0427 26.752 20.3213 30.044 16 32C11.6773 30.044 7.95601 26.752 5.55201 22.9227C3.14134 19.0827 1.87334 14.6093 1.56001 8.84667C1.42001 6.26267 1.50401 3.21733 1.57734 1.24667C6.34067 0.421501 11.1657 0.00443104 16 0ZM16 0.554667C11.4 0.554667 6.73334 0.946667 2.11468 1.72C2.01334 4.64267 2.01334 6.968 2.11468 8.81867C2.42134 14.4827 3.66401 18.872 6.02134 22.628C8.38134 26.3853 11.9173 29.4893 16 31.3907C20.0827 29.4893 23.62 26.3853 25.9787 22.628C28.3373 18.8707 29.5787 14.4813 29.8853 8.81867C29.9867 6.968 29.9867 4.64267 29.8853 1.72C25.2969 0.94969 20.6527 0.559919 16 0.554667ZM15.96 17.3813L16.0787 18.0773C16.0964 18.143 16.095 18.2124 16.0747 18.2773C16.0107 18.5027 15.5907 20.3973 15.3573 21.7773C15.2467 22.4133 15.152 23.044 15.0973 23.584C15.0599 23.8028 15.0805 24.0277 15.1573 24.236C15.3867 25.0053 16.2347 27.0133 16.3973 27.38C16.4152 27.4202 16.4269 27.4629 16.432 27.5067L16.4933 27.98C16.2213 27.5693 14.744 24.8533 14.164 23.348C14.096 23.1707 14.084 23.084 14.1587 22.7573C14.5613 21.0293 15.6533 18.092 15.96 17.3813ZM13.8067 13.2053C13.8467 13.328 14.1933 14.512 14.22 14.7947C14.2464 14.912 14.2333 15.0349 14.1827 15.144C13.8787 15.952 12.9613 17.9613 12.608 18.632C12.528 18.7787 12.4547 18.876 12.3067 19.0267C11.9693 19.3707 11.3213 20.0213 10.9213 20.3853C10.7993 20.4914 10.7229 20.6404 10.708 20.8013C10.6563 21.1284 10.6198 21.4576 10.5987 21.788C10.588 22.0013 10.6213 22.1013 10.7413 22.3133C11.4467 23.5733 13.8027 26.4733 14.4747 27.0813C14.5326 27.1339 14.5951 27.1812 14.6613 27.2227C14.76 27.2893 15.0813 27.4973 15.0813 27.4973C15.0943 27.5065 15.1052 27.5183 15.1133 27.532L15.2307 27.7373C14.8842 27.5667 14.5398 27.392 14.1973 27.2133C14.1381 27.1812 14.0823 27.1433 14.0307 27.1C13.244 26.4467 10.836 23.6253 10.128 22.4467C9.95068 22.1533 9.93334 22.0587 9.95601 21.78C10.0013 21.2613 10.0693 20.6093 10.1293 20.324C10.1539 20.1643 10.2259 20.0156 10.336 19.8973C11.3413 18.7453 13.2773 16.2 13.8427 15.1107C13.8936 15.0255 13.9178 14.927 13.912 14.828C13.9147 14.4907 13.808 13.8347 13.7787 13.668C13.7745 13.642 13.7736 13.6156 13.776 13.5893L13.8067 13.2053ZM20.38 12.5733C20.4893 12.6227 20.6653 12.68 20.7453 12.7733C21.9947 14.0773 22.9933 15.4307 23.1933 15.7867C23.232 15.853 23.257 15.9265 23.2667 16.0027C23.492 17.9053 23.2987 19.92 22.84 21.6733C22.8258 21.7453 22.7973 21.8138 22.756 21.8745C22.7148 21.9352 22.6617 21.987 22.6 22.0267C21.5867 22.7893 19.1747 24.7893 18.3653 25.5333C18.277 25.6154 18.2003 25.7092 18.1373 25.812C17.9333 26.1453 17.6813 26.6133 17.5213 26.912C17.356 26.552 16.9973 25.6747 16.8747 25.3213C16.831 25.2153 16.8291 25.0967 16.8693 24.9893C17.0693 24.256 18.0187 22.1187 18.2027 21.732C18.2013 21.7813 18.212 21.9107 18.1933 21.9587C18.1093 22.2107 17.6 23.8947 17.496 24.6253C17.474 24.7461 17.474 24.8699 17.496 24.9907C17.5413 25.3307 17.7453 25.956 17.7453 25.956C17.768 25.9013 17.9973 25.4453 18.1573 25.32C19.1027 24.3893 21.0867 22.6893 22.224 21.768C22.352 21.6653 22.3987 21.5947 22.428 21.3987C22.568 20.432 22.6093 18.696 22.524 17.432C22.5088 17.1936 22.4306 16.9636 22.2973 16.7653C21.988 16.3093 21.62 15.8787 21.0613 15.3253C20.9815 15.2455 20.928 15.1431 20.908 15.032C20.7444 14.2099 20.5688 13.3903 20.3813 12.5733H20.38ZM9.82001 14.5853C9.8976 14.56 9.98069 14.5568 10.06 14.576C10.416 14.6613 11.1693 14.8467 11.74 14.992C11.82 15.0133 11.9187 15.088 11.9613 15.1587L12.0853 15.3653C12.1067 15.4007 12.1186 15.441 12.12 15.4823C12.1214 15.5236 12.1122 15.5646 12.0933 15.6013C11.9611 15.8544 11.825 16.1056 11.6853 16.3547L11.568 16.5653C11.3507 16.952 11.1333 17.3253 11.0107 17.5213C10.9307 17.6507 10.8853 17.708 10.7413 17.7587C10.1813 17.956 9.48401 18.192 9.07068 18.3253C8.98668 18.3533 8.95734 18.4053 8.97468 18.4987C9.00401 18.6693 9.09868 19.2507 9.13468 19.4187C9.14801 19.4813 9.19868 19.532 9.29201 19.5133C9.53601 19.468 10.1867 19.308 10.1867 19.308L9.88001 19.5907C9.85939 19.6099 9.83482 19.6245 9.80801 19.6333C9.56151 19.7117 9.31248 19.782 9.06134 19.844C8.95734 19.8667 8.89068 19.8253 8.86268 19.7067C8.86268 19.7067 8.67868 18.92 8.61201 18.652C8.60159 18.613 8.59003 18.5743 8.57734 18.536C8.5052 18.3272 8.42604 18.1208 8.34001 17.9173C8.33194 17.8988 8.32786 17.8788 8.32801 17.8587C8.33068 17.676 8.36401 17.2693 8.36401 17.2693C8.36401 17.2693 8.76268 17.6427 8.95601 17.7787C8.99868 17.8093 9.02534 17.816 9.07868 17.8013C9.34268 17.7347 9.95201 17.532 10.2867 17.4067C10.3627 17.3779 10.4299 17.3296 10.4813 17.2667C10.828 16.8493 11.2613 16.2 11.512 15.708C11.5459 15.6406 11.5526 15.5628 11.5307 15.4907L11.4773 15.3133C11.4668 15.2846 11.4506 15.2582 11.4298 15.2358C11.409 15.2134 11.3839 15.1953 11.356 15.1827C10.8263 14.9802 10.2929 14.7878 9.75601 14.6053L9.82134 14.5853H9.82001ZM21.476 9.52133C21.6057 9.47338 21.7487 9.47672 21.876 9.53067C22.8627 9.94533 24.524 10.9227 25.448 11.6107C25.5373 11.6773 25.572 11.7227 25.5947 11.8293C25.812 12.816 25.8947 14.3427 25.7587 15.6267C25.7503 15.7132 25.7244 15.7971 25.6827 15.8733C25.096 17.0707 24.4387 18.1973 23.7453 19.0667C23.756 18.96 23.8053 18.452 23.808 18.156C23.8081 18.1405 23.8118 18.1252 23.8187 18.1113C23.8256 18.0975 23.8357 18.0854 23.848 18.076C23.9859 17.9692 24.1215 17.8594 24.2547 17.7467C24.2941 17.7142 24.3278 17.6754 24.3547 17.632C24.6373 17.1747 25.1413 16.2187 25.3453 15.644C25.3952 15.5039 25.4148 15.3549 25.4027 15.2067C25.3373 14.404 25.212 13.2947 25.024 12.5693C25.0087 12.5082 24.9805 12.4511 24.9414 12.4017C24.9024 12.3523 24.8533 12.3117 24.7973 12.2827C24.4047 12.0937 24.0043 11.9211 23.5973 11.7653C23.4972 11.7256 23.4041 11.6703 23.3213 11.6013C22.7745 11.1417 22.2165 10.6953 21.648 10.2627C21.5816 10.2131 21.5053 10.1785 21.4243 10.1612C21.3433 10.1439 21.2595 10.1444 21.1787 10.1627C20.843 10.2393 20.5087 10.322 20.176 10.4107C20.1118 10.4311 20.0437 10.4357 19.9773 10.424C19.844 10.4093 19.5773 10.388 19.468 10.38C20.1256 10.0671 20.7955 9.78062 21.476 9.52133ZM11.032 16.0013C10.8031 16.3832 10.5497 16.7497 10.2733 17.0987C10.2441 17.1345 10.2059 17.1621 10.1627 17.1787C9.85129 17.2923 9.53695 17.3976 9.22001 17.4947L11.032 16.0013ZM7.79601 15.4707L7.65201 16.468L7.16001 15.892C7.25068 15.6973 7.51201 15.5147 7.79601 15.4707ZM6.88134 13.2053L6.70401 13.3173C6.65868 13.3453 6.64668 13.3573 6.62801 13.3973C6.59266 13.4701 6.55486 13.5417 6.51468 13.612C6.49718 13.6372 6.47606 13.6596 6.45201 13.6787C6.24284 13.8398 6.03081 13.9971 5.81601 14.1507C5.80401 14.1587 5.78934 14.156 5.77868 14.1453C5.73291 14.0966 5.68931 14.0459 5.64801 13.9933C5.63454 13.9743 5.62753 13.9514 5.62801 13.928C5.62874 13.8688 5.63141 13.8097 5.63601 13.7507C5.64135 13.6827 5.66001 13.6507 5.74268 13.564C5.83601 13.468 5.93601 13.368 6.04268 13.264C6.30134 13.0453 6.95734 12.5133 8.12801 11.6773C8.15051 11.6615 8.17031 11.6421 8.18668 11.62C8.30934 11.4547 8.65868 11.0013 8.74401 10.8933C8.75625 10.8785 8.77012 10.8651 8.78534 10.8533C8.89553 10.7642 9.01133 10.6823 9.13201 10.608C9.45734 10.4027 10.0893 10.0267 10.4427 9.82133L10.3093 9.98667L10.2853 10.008C10.034 10.1979 9.78417 10.3899 9.53601 10.584C9.51892 10.596 9.50453 10.6115 9.49374 10.6294C9.48295 10.6473 9.476 10.6673 9.47334 10.688C9.43362 10.909 9.40204 11.1314 9.37868 11.3547C9.37468 11.408 9.35201 11.432 9.29868 11.4547C9.06801 11.548 8.79468 11.6467 8.57334 11.7347C8.54144 11.7454 8.51166 11.7617 8.48534 11.7827C8.46268 11.8 8.16934 12.0627 8.16934 12.0627C8.16934 12.0627 8.80801 11.9053 9.04268 11.852C9.06429 11.8453 9.08706 11.8431 9.10955 11.8457C9.13203 11.8482 9.15375 11.8553 9.17334 11.8667C9.22268 11.8893 9.30268 11.9213 9.34534 11.9373C9.40014 11.9596 9.46099 11.9619 9.51734 11.944C9.78135 11.8853 10.224 11.78 10.4613 11.7173C10.5676 11.6923 10.6674 11.6455 10.7547 11.58C10.868 11.5013 11.1547 11.2867 11.1547 11.2867L11.1453 11.3453C11.1427 11.3614 11.1353 11.3763 11.124 11.388C11.0562 11.4692 10.9859 11.5483 10.9133 11.6253C10.8228 11.7262 10.7088 11.8032 10.5813 11.8493C9.91068 12.1293 8.76401 12.564 7.90268 12.8627C7.85537 12.8765 7.81288 12.9033 7.78001 12.94L7.67334 13.0533C7.67334 13.0533 8.37601 13.1053 8.59068 13.1293C8.6548 13.1351 8.71524 13.1618 8.76268 13.2053C8.93868 13.3573 9.52134 13.9587 9.69601 14.1653C9.69601 14.1653 8.03868 14.4427 7.27068 14.632C7.2312 14.6405 7.19495 14.6601 7.16616 14.6884C7.13736 14.7168 7.1172 14.7527 7.10801 14.792C7.04401 15.016 6.89468 15.7347 6.89468 15.7347C6.89468 15.7347 6.84134 15.7173 6.76668 15.6747C6.71612 15.6447 6.67103 15.6064 6.63334 15.5613C6.40885 15.3173 6.20041 15.059 6.00934 14.788C5.96801 14.7253 5.95068 14.6453 6.00268 14.5813C6.15868 14.3893 6.47068 14.04 6.64268 13.86C6.66944 13.8289 6.69187 13.7944 6.70934 13.7573C6.77601 13.62 6.84801 13.3333 6.88134 13.2053ZM17.576 9.45067C17.6254 9.442 17.6762 9.44899 17.7213 9.47067L18.0627 9.63333C18.0794 9.64145 18.094 9.65322 18.1056 9.66775C18.1171 9.68229 18.1252 9.69924 18.1293 9.71733C18.176 9.91333 18.2333 10.172 18.2707 10.3933C18.2862 10.4851 18.2692 10.5794 18.2227 10.66C18.0339 10.9744 17.8356 11.283 17.628 11.5853C17.5949 11.6396 17.5843 11.7047 17.5987 11.7667C17.6733 12.1747 17.98 13.5987 17.98 13.5987L17.7867 13.4227C17.7496 13.3896 17.722 13.3473 17.7067 13.3C17.5259 12.7519 17.3548 12.2007 17.1933 11.6467C17.1838 11.6136 17.1825 11.5787 17.1895 11.5451C17.1964 11.5114 17.2115 11.4799 17.2333 11.4533C17.4347 11.208 17.7293 10.816 17.9 10.568C17.948 10.4973 17.964 10.4213 17.936 10.3627C17.8826 10.2557 17.8262 10.1503 17.7667 10.0467C17.7492 10.0156 17.7206 9.99224 17.6867 9.98133L17.4547 9.908C17.4143 9.89482 17.3707 9.89529 17.3307 9.90933C16.8253 10.0933 16.1453 10.3573 15.7307 10.5307C15.6808 10.5542 15.6243 10.5599 15.5707 10.5467C15.4507 10.5293 15.0987 10.4667 14.9267 10.4333C14.9197 10.4319 14.9131 10.4289 14.9074 10.4245C14.9018 10.42 14.8973 10.4143 14.8943 10.4078C14.8914 10.4013 14.8899 10.3942 14.8902 10.387C14.8905 10.3799 14.8925 10.3729 14.896 10.3667L15.1 10.012C15.1137 9.98839 15.1321 9.9679 15.1542 9.95183C15.1762 9.93575 15.2014 9.92446 15.228 9.91867C16.0069 9.7445 16.7898 9.58846 17.576 9.45067ZM10.316 11.0747C10.3313 11.0732 10.3467 11.0767 10.3599 11.0846C10.3731 11.0925 10.3834 11.1045 10.3893 11.1187C10.4077 11.1659 10.4163 11.2164 10.4145 11.2671C10.4126 11.3178 10.4004 11.3675 10.3787 11.4133C10.3685 11.4334 10.3542 11.4512 10.3368 11.4654C10.3193 11.4796 10.2991 11.4901 10.2773 11.496L9.94934 11.568C9.94489 11.5688 9.94033 11.5686 9.93597 11.5674C9.93161 11.5662 9.92756 11.5641 9.92412 11.5611C9.92068 11.5582 9.91793 11.5546 9.91607 11.5504C9.91421 11.5463 9.91328 11.5419 9.91334 11.5373L9.94401 11.1507C9.94519 11.1383 9.95063 11.1268 9.95939 11.118C9.96815 11.1093 9.97968 11.1038 9.99201 11.1027L10.316 11.076V11.0747ZM14.0413 8.60267C14.0499 8.60274 14.0583 8.60504 14.0657 8.60934C14.0731 8.61364 14.0792 8.61979 14.0836 8.62719C14.0879 8.63459 14.0902 8.64298 14.0902 8.65153C14.0903 8.66009 14.0882 8.66852 14.084 8.676L13.2853 10.0533C13.2411 10.1342 13.1669 10.1946 13.0787 10.2213L11.5827 10.6907C11.4193 10.7412 11.2506 10.7725 11.08 10.784C10.748 10.8107 9.76268 10.8413 9.76268 10.8413L9.78401 10.7947C9.79422 10.7725 9.81227 10.755 9.83468 10.7453L10.3013 10.5467C10.3362 10.5323 10.367 10.5094 10.3907 10.48L11.1107 9.592C11.15 9.54309 11.1984 9.50232 11.2533 9.472C11.7293 9.22 12.576 8.844 13.1693 8.64533C13.2306 8.62573 13.2944 8.61495 13.3587 8.61333L14.0413 8.60267ZM13.2413 7.00533C15.2453 6.84276 17.2589 6.83518 19.264 6.98267C19.3848 6.9919 19.5032 7.02072 19.6147 7.068C20.3147 7.36133 21.556 8.00667 22.936 8.796C22.9969 8.83099 23.0541 8.87209 23.1067 8.91867C23.472 9.24133 24.3987 10.1907 24.3987 10.1907L24.1093 10.1333C24.0693 10.1255 24.0312 10.1096 23.9973 10.0867C23.3041 9.62413 22.5851 9.20123 21.844 8.82C21.7593 8.77729 21.6676 8.75019 21.5733 8.74C21.1991 8.70209 20.8238 8.67497 20.448 8.65867C20.3067 8.65648 20.168 8.61987 20.044 8.552C19.6138 8.34001 19.1757 8.14432 18.7307 7.96533C18.6161 7.91553 18.4915 7.89272 18.3667 7.89867C17.4955 7.91416 16.6247 7.94528 15.7547 7.992C15.7315 7.99314 15.7082 7.9918 15.6853 7.988L15.36 7.93733C16.284 7.77733 18.5693 7.57333 19.516 7.524L19.1307 7.396C19.0562 7.37135 18.9785 7.35787 18.9 7.356C17.6067 7.32667 15.8293 7.332 14.324 7.44533C14.2311 7.45197 14.14 7.47452 14.0547 7.512C13.624 7.70133 12.5747 8.272 11.5213 8.856L10.492 9.43333L10.648 9.23067C10.6638 9.20863 10.6843 9.19041 10.708 9.17733C10.844 9.08667 11.2547 8.82 11.42 8.69867C11.7373 8.46 12.2373 8.03867 12.536 7.77733C12.6028 7.71826 12.6603 7.64949 12.7067 7.57333C12.804 7.41733 12.9093 7.248 12.9733 7.15333C13.004 7.11038 13.0438 7.07481 13.09 7.04921C13.1361 7.0236 13.1887 7.00862 13.2413 7.00533ZM6.20668 3.20533C6.61468 3.16267 6.84268 3.32133 6.84268 3.736V3.964C6.84268 4.38667 6.61468 4.55867 6.20668 4.6C5.64212 4.65894 5.07809 4.72295 4.51468 4.792V5.41867C4.39601 5.432 4.27868 5.44533 4.16001 5.46133V3.44133C4.84135 3.35521 5.52362 3.27654 6.20668 3.20533ZM25.144 3.13867C26.0441 3.22672 26.9428 3.32762 27.84 3.44133V3.768C27.4519 3.71885 27.0634 3.67218 26.6747 3.628V5.32133C26.5565 5.30783 26.4383 5.2945 26.32 5.28133V3.588C25.9283 3.54457 25.5363 3.50368 25.144 3.46533V3.13867ZM10.2 2.876V3.2C9.45985 3.24563 8.72025 3.29986 7.98134 3.36267V3.86C8.63857 3.80399 9.29639 3.7551 9.95468 3.71333V4.03867C9.2964 4.08063 8.63859 4.12953 7.98134 4.18533V4.732C8.72022 4.66893 9.45983 4.6147 10.2 4.56933V4.89467C9.34406 4.94748 8.48887 5.01193 7.63468 5.088V3.06667C8.48887 2.99053 9.34406 2.92608 10.2 2.87333V2.876ZM21.7107 3.42933C21.7107 2.976 21.9347 2.88267 22.4413 2.91733C22.8853 2.948 23.328 2.98133 23.772 3.01733C24.212 3.05467 24.5013 3.17733 24.5013 3.64V4.54133C24.5013 4.99467 24.2507 5.07733 23.772 5.03733C23.3287 5.00094 22.8851 4.96761 22.4413 4.93733C21.9573 4.904 21.7107 4.81067 21.7107 4.33067V3.42933ZM18.2693 2.724C19.1253 2.74533 19.9827 2.77733 20.8387 2.82133V3.14667C20.0986 3.10861 19.3581 3.07927 18.6173 3.05867V3.556C19.276 3.57467 19.9347 3.6 20.5933 3.632V3.95733C19.935 3.92551 19.2763 3.90062 18.6173 3.88267V4.428C19.3581 4.44841 20.0986 4.47774 20.8387 4.516V4.84133C19.9827 4.79731 19.1262 4.76486 18.2693 4.744V2.724ZM13.8107 2.72267V4.184C13.8107 4.64667 13.568 4.748 13.0787 4.76267C12.6532 4.77567 12.2279 4.79167 11.8027 4.81067C11.3493 4.83067 11.072 4.744 11.072 4.28667V2.82667L11.4187 2.808V4.33067C11.4187 4.424 11.4987 4.49867 11.6053 4.49467C12.1625 4.46835 12.7198 4.44701 13.2773 4.43067C13.324 4.43067 13.3688 4.41212 13.4018 4.37912C13.4348 4.34611 13.4533 4.30134 13.4533 4.25467V2.73067L13.8107 2.72133V2.72267ZM22.2427 3.22933C22.2188 3.22681 22.1947 3.22948 22.1719 3.23714C22.1492 3.24481 22.1284 3.2573 22.1109 3.27376C22.0934 3.29022 22.0797 3.31026 22.0707 3.33251C22.0617 3.35476 22.0576 3.37869 22.0587 3.40267V4.4C22.0587 4.49333 22.1387 4.58933 22.2427 4.59733C22.8187 4.63467 23.3947 4.67733 23.9707 4.72667C24.0172 4.72814 24.0624 4.71141 24.0968 4.68003C24.1312 4.64866 24.1519 4.60512 24.1547 4.55867V3.55867C24.1526 3.50897 24.1329 3.46163 24.0992 3.42503C24.0656 3.38843 24.02 3.36492 23.9707 3.35867C23.3951 3.30978 22.8191 3.26755 22.2427 3.22933ZM15.3467 2.7C15.9867 2.69467 16.624 2.69733 17.2627 2.70533V3.03067C16.58 3.02162 15.8973 3.01984 15.2147 3.02533C15.1213 3.02667 15.0293 3.10667 15.0293 3.19867V4.212C15.0293 4.304 15.1227 4.396 15.2147 4.39467C15.828 4.38933 16.4387 4.39067 17.052 4.39733V3.85067C16.6965 3.84675 16.3409 3.84498 15.9853 3.84533V3.52C16.4573 3.52 16.928 3.524 17.3987 3.53067V4.728C16.7365 4.71795 16.0742 4.71484 15.412 4.71867C14.928 4.72267 14.6813 4.63867 14.6813 4.168V3.288C14.6813 2.848 14.9013 2.70267 15.3467 2.7ZM6.31334 3.52133C5.71359 3.5831 5.11446 3.65066 4.51601 3.724V4.468C5.11446 4.39473 5.7136 4.32717 6.31334 4.26533C6.40534 4.256 6.49734 4.172 6.49734 4.084V3.67467C6.49734 3.58133 6.40401 3.512 6.31334 3.52133Z" fill="currentColor"/>
</g>
<defs>
<clipPath id="clip0_601_50336">
<rect width="32" height="32" fill="white"/>
</clipPath>
</defs>
</svg>
