<svg xmlns="http://www.w3.org/2000/svg" width="32" height="21" fill="currentColor" viewBox="0 0 32 21"><g clip-path="url(#clip0_601_1308)"><path d="M16 .144C7.246.144.148 4.735.148 10.398c0 5.665 7.098 10.258 15.852 10.258s15.852-4.591 15.852-10.258S24.754.144 16 .144m0 16.11c-1.302 0-2.365-2.564-2.431-5.792a28 28 0 0 0 4.862 0c-.066 3.226-1.129 5.792-2.431 5.792M13.73 7.9C14.082 5.619 14.966 4 16 4s1.917 1.619 2.27 3.9a25.7 25.7 0 0 1-4.54 0M16 1.627c-1.7 0-3.15 2.546-3.685 6.1-3.223-.502-5.473-1.648-5.473-2.98 0-1.795 4.1-3.251 9.158-3.251s9.158 1.456 9.158 3.252c0 1.331-2.25 2.477-5.473 2.98-.535-3.555-1.985-6.1-3.685-6.1M2.42 10.015c0-1.738.67-3.37 1.834-4.77a2 2 0 0 0-.02.299c0 2.19 3.283 4.056 7.864 4.744q-.005.237-.004.479c0 4.08 1.144 7.537 2.725 8.71C7.87 19.058 2.42 14.981 2.42 10.015m14.761 9.462c1.581-1.173 2.725-4.63 2.725-8.71q0-.243-.004-.48c4.58-.687 7.865-2.552 7.865-4.743q-.002-.15-.021-.298c1.164 1.404 1.833 3.031 1.833 4.769 0 4.966-5.45 9.043-12.398 9.462"/></g><defs><clipPath id="clip0_601_1308"><path fill="#fff" d="M0 0h32v20.8H0z"/></clipPath></defs></svg>