<svg xmlns="http://www.w3.org/2000/svg" width="36" height="32" fill="currentColor" viewBox="0 0 36 32"><path fill-rule="evenodd" d="M34.47 30.313c-3.104-2.66-12.322-10.23-16.699-10.23S4.181 27.647 1.077 30.31c-.02-.629-.036-1.011-.036-1.571 0 0-.076-.925.742-1.85 6.73-6.099 13.787-9.083 14.004-9.174 2.104-.89 1.986-.722 1.984-4.292 0 0 .094-.005.153.001 2.964.268 10.931 8 15.646 13.229.009.009.931 1.076.931 2.202.001.527-.014 1.047-.032 1.458m-.127-4.364c-.501-.556-12.3-13.58-16.572-13.58-4.27 0-16.07 13.024-16.57 13.58-.05.055-1.2 1.371-1.2 2.906 0 1.195.08 2.398.08 2.41.003.055.03.563.313.7A.3.3 0 0 0 .539 32q.158 0 .348-.14c.128-.112 12.148-10.729 16.884-10.729 4.738 0 16.758 10.617 16.879 10.724q.196.145.355.145.078 0 .146-.033c.282-.138.31-.647.312-.704 0-.009.08-1.212.08-2.407 0-1.536-1.152-2.852-1.2-2.907m.11-8.023c-3.1-2.657-12.31-10.22-16.68-10.22-4.375 0-13.577 7.558-16.68 10.217-.018-.627-.035-1.01-.035-1.569 0 0-.076-.924.741-1.848C8.524 8.413 15.573 5.432 15.79 5.34c2.103-.889 1.984-.722 1.982-4.287 0 0 .094-.006.154 0 2.96.269 10.92 7.994 15.63 13.216.008.009.93 1.075.93 2.2 0 .526-.016 1.046-.032 1.456m-.127-4.36C33.826 13.011 22.038 0 17.771 0 13.506 0 1.718 13.011 1.218 13.566c-.05.055-1.2 1.37-1.2 2.904 0 1.193.08 2.395.08 2.406.002.056.03.563.312.701a.3.3 0 0 0 .146.034q.156 0 .348-.14C1.032 19.36 13.04 8.753 17.77 8.753c4.733 0 16.742 10.606 16.862 10.713q.196.144.355.144.077 0 .146-.033c.28-.138.31-.646.311-.703 0-.01.08-1.21.08-2.404 0-1.534-1.15-2.85-1.199-2.904" clip-rule="evenodd"/></svg>