<svg xmlns="http://www.w3.org/2000/svg" width="64" height="56" fill="currentColor" viewBox="0 0 64 56"><g clip-path="url(#clip0_601_50307)"><path d="M32.02 42.434c-7.929 0-14.424-6.527-14.424-14.455 0-1.783.319-3.47.924-5.062l8.437 16.97c.095.223.255.414.51.414.254 0 .413-.191.509-.414l3.884-8.692c.032-.096.096-.191.191-.191.096 0 .127.095.191.191l3.884 8.692c.096.223.255.414.51.414s.414-.191.51-.414l8.437-16.97a14.1 14.1 0 0 1 .923 5.062c-.064 7.928-6.559 14.455-14.487 14.455m0-17.734c-.096 0-.128-.096-.192-.191l-4.52-10.189a13.6 13.6 0 0 1 4.711-.827c1.656 0 3.248.286 4.712.827l-4.52 10.189c-.064.127-.096.19-.192.19m-4.617 10.475c-.096 0-.128-.096-.191-.191L19.889 20.21c1.305-2.006 3.056-3.694 5.19-4.872l5.285 11.749c.063.19.223.255.382.255h2.547c.19 0 .318-.032.414-.255l5.285-11.749a14.9 14.9 0 0 1 5.19 4.872l-7.387 14.773c-.032.095-.096.19-.191.19-.096 0-.127-.095-.191-.19l-2.77-6.304c-.096-.223-.223-.255-.414-.255h-2.547c-.191 0-.318.032-.414.255l-2.674 6.304c-.032.095-.096.19-.191.19m4.616 8.724c8.82 0 15.92-7.1 15.92-15.92s-7.1-15.92-15.92-15.92-15.92 7.1-15.92 15.92S23.2 43.9 32.02 43.9"/></g><defs><clipPath id="clip0_601_50307"><path fill="#fff" d="M16 12h32v32H16z"/></clipPath></defs></svg>