<svg xmlns="http://www.w3.org/2000/svg" width="44" height="32" fill="currentColor" viewBox="0 0 44 32"><path fill-rule="evenodd" d="M8.578 14.594H5.021L5.035 4.18h4.643L9.653.001H0l.873 32h4.241l-.093-13.27h3.557zM16.336 0H11.33l.537 32h4.38zm18.888 32h4.238l.9-27.968h3.43L43.768 0H31.863v4.037h3.46zM22.94 14.81l.049-10.869h2.445c1.109 2.42 1.821 5.622 2.38 10.87zM19.034 32h4.055l.045-13.233h4.859c.382 2.335.475 9.545.498 13.232h3.934c.37-16.336-.782-25.57-3.968-31.999h-9.794z" clip-rule="evenodd"/></svg>