<svg width="44" height="32" viewBox="0 0 44 32" fill="currentColor" xmlns="http://www.w3.org/2000/svg">
<path fill-rule="evenodd" clip-rule="evenodd" d="M8.57817 14.5936H5.02132L5.03457 4.1814H9.67832L9.65328 0.000305176H0L0.872551 32.0001H5.11436L5.02132 18.7302H8.57817V14.5936Z" fill="currentColor"/>
<path fill-rule="evenodd" clip-rule="evenodd" d="M16.3355 0.000305176H11.3298L11.8665 32.0001H16.2465L16.3355 0.000305176Z" fill="currentColor"/>
<path fill-rule="evenodd" clip-rule="evenodd" d="M35.2238 32.0001H39.4615L40.3615 4.03187H43.7928L43.7666 0.000305176H31.8635V4.0365H35.3234L35.2238 32.0001Z" fill="currentColor"/>
<path fill-rule="evenodd" clip-rule="evenodd" d="M22.9407 14.8104L22.9888 3.94104H25.4342C26.543 6.36186 27.2554 9.56316 27.8139 14.8104H22.9407ZM19.0332 31.9991H19.4628H22.624H23.088L23.1332 18.7669H27.9918C28.3737 21.1025 28.4673 28.3119 28.4901 31.9991H28.8918H32.0652H32.4236C32.7947 15.6625 31.6418 6.42842 28.4565 0H18.6621L19.0332 31.9991Z" fill="currentColor"/>
</svg>
